# xmcd
#
# Track frame offsets:
#	150
#	7402
#	22843
#	32695
#	45429
#	60401
#	72798
#	85389
#	95961
#	104138
#	117596
#	132821
#
# Disc length: 1875 seconds
#
# Revision: 0
# Processed by: cddbd v1.5.2PL0 Copyright (c) Steve Scherf et al.
# Submitted via: dBpowerAMP V4.0
#
DISCID=a407510c
DTITLE=Baby Eagle - No Blues
DYEAR=2007
DGENRE=Blues
TTITLE0=No Blues
TTITLE1=Rainwater Blues
TTITLE2=Baby Come on Home
TTITLE3=Census taking Blues
TTITLE4=Driving Blind
TTITLE5=Morning Light Blues
TTITLE6=Baby Blues
TTITLE7=Bone-Dry Christmas
TTITLE8=Blueberry Blues
TTITLE9=Black Iron Lake
TTITLE10=No Blues
TTITLE11=Resurrection Blues
EXTD=
EXTT0=
EXTT1=
EXTT2=
EXTT3=
EXTT4=
EXTT5=
EXTT6=
EXTT7=
EXTT8=
EXTT9=
EXTT10=
EXTT11=
PLAYORDER=
